<mxfile host="app.diagrams.net" agent="Mozilla/5.0 (Windows NT 10.0; Win64; x64) AppleWebKit/537.36 (KHTML, like Gecko) Chrome/141.0.0.0 Safari/537.36" version="28.2.7" pages="4">
  <diagram name="Page-1" id="GvRuQdCMXNg_Fk4Ry_nd">
    <mxGraphModel dx="912" dy="1838" grid="1" gridSize="10" guides="1" tooltips="1" connect="1" arrows="1" fold="1" page="1" pageScale="1" pageWidth="827" pageHeight="1169" math="0" shadow="0">
      <root>
        <mxCell id="0" />
        <mxCell id="1" parent="0" />
        <mxCell id="LYfTnZYu33YeIZnlkIy6-5" style="edgeStyle=orthogonalEdgeStyle;rounded=0;orthogonalLoop=1;jettySize=auto;html=1;entryX=0.5;entryY=0;entryDx=0;entryDy=0;" parent="1" source="LYfTnZYu33YeIZnlkIy6-1" target="LYfTnZYu33YeIZnlkIy6-6" edge="1">
          <mxGeometry relative="1" as="geometry">
            <mxPoint x="380" y="-970" as="targetPoint" />
          </mxGeometry>
        </mxCell>
        <mxCell id="LYfTnZYu33YeIZnlkIy6-1" value="&lt;div style=&quot;&quot;&gt;&lt;span style=&quot;font-size: 18px; background-color: transparent; color: light-dark(rgb(0, 0, 0), rgb(255, 255, 255)); white-space: pre;&quot;&gt;&#x9;&lt;/span&gt;&lt;span style=&quot;font-size: 18px; background-color: transparent; color: light-dark(rgb(0, 0, 0), rgb(255, 255, 255));&quot;&gt;mulai&lt;/span&gt;&lt;/div&gt;" style="ellipse;whiteSpace=wrap;html=1;align=left;" parent="1" vertex="1">
          <mxGeometry x="330" y="-1130" width="100" height="70" as="geometry" />
        </mxCell>
        <mxCell id="LYfTnZYu33YeIZnlkIy6-11" style="edgeStyle=orthogonalEdgeStyle;rounded=0;orthogonalLoop=1;jettySize=auto;html=1;exitX=0.5;exitY=1;exitDx=0;exitDy=0;entryX=0.5;entryY=0;entryDx=0;entryDy=0;" parent="1" source="LYfTnZYu33YeIZnlkIy6-6" target="LYfTnZYu33YeIZnlkIy6-12" edge="1">
          <mxGeometry relative="1" as="geometry">
            <mxPoint x="380" y="-840" as="targetPoint" />
          </mxGeometry>
        </mxCell>
        <mxCell id="LYfTnZYu33YeIZnlkIy6-6" value="username_asli=&lt;div&gt;&quot;Kiranacintamentari&quot;&lt;/div&gt;" style="rounded=0;whiteSpace=wrap;html=1;" parent="1" vertex="1">
          <mxGeometry x="320" y="-980" width="120" height="50" as="geometry" />
        </mxCell>
        <mxCell id="LYfTnZYu33YeIZnlkIy6-13" style="edgeStyle=orthogonalEdgeStyle;rounded=0;orthogonalLoop=1;jettySize=auto;html=1;exitX=0.5;exitY=1;exitDx=0;exitDy=0;" parent="1" source="LYfTnZYu33YeIZnlkIy6-12" target="LYfTnZYu33YeIZnlkIy6-21" edge="1">
          <mxGeometry relative="1" as="geometry">
            <mxPoint x="460" y="-760" as="targetPoint" />
            <Array as="points" />
          </mxGeometry>
        </mxCell>
        <mxCell id="LYfTnZYu33YeIZnlkIy6-12" value="password_asli=&lt;div&gt;&quot;2509106106&quot;&lt;/div&gt;" style="rounded=0;whiteSpace=wrap;html=1;" parent="1" vertex="1">
          <mxGeometry x="320" y="-840" width="120" height="60" as="geometry" />
        </mxCell>
        <mxCell id="LYfTnZYu33YeIZnlkIy6-18" style="edgeStyle=orthogonalEdgeStyle;rounded=0;orthogonalLoop=1;jettySize=auto;html=1;exitX=0.5;exitY=1;exitDx=0;exitDy=0;entryX=0.5;entryY=0;entryDx=0;entryDy=0;" parent="1" source="LYfTnZYu33YeIZnlkIy6-14" target="LYfTnZYu33YeIZnlkIy6-19" edge="1">
          <mxGeometry relative="1" as="geometry">
            <mxPoint x="570" y="-310" as="targetPoint" />
            <Array as="points" />
          </mxGeometry>
        </mxCell>
        <mxCell id="LYfTnZYu33YeIZnlkIy6-14" value="login_berhasil=&lt;div&gt;false&lt;/div&gt;" style="rounded=0;whiteSpace=wrap;html=1;" parent="1" vertex="1">
          <mxGeometry x="320" y="-560" width="120" height="60" as="geometry" />
        </mxCell>
        <mxCell id="LYfTnZYu33YeIZnlkIy6-26" style="edgeStyle=orthogonalEdgeStyle;rounded=0;orthogonalLoop=1;jettySize=auto;html=1;exitX=0.5;exitY=1;exitDx=0;exitDy=0;entryX=0.5;entryY=0;entryDx=0;entryDy=0;" parent="1" source="LYfTnZYu33YeIZnlkIy6-19" target="LYfTnZYu33YeIZnlkIy6-39" edge="1">
          <mxGeometry relative="1" as="geometry">
            <mxPoint x="490" y="-270" as="targetPoint" />
            <Array as="points" />
          </mxGeometry>
        </mxCell>
        <mxCell id="LYfTnZYu33YeIZnlkIy6-19" value="for percobaan&lt;div&gt;in range&amp;nbsp;&lt;/div&gt;&lt;div&gt;(bata_login)&lt;/div&gt;" style="rhombus;whiteSpace=wrap;html=1;" parent="1" vertex="1">
          <mxGeometry x="315" y="-430" width="130" height="110" as="geometry" />
        </mxCell>
        <mxCell id="LYfTnZYu33YeIZnlkIy6-22" style="edgeStyle=orthogonalEdgeStyle;rounded=0;orthogonalLoop=1;jettySize=auto;html=1;exitX=0.5;exitY=1;exitDx=0;exitDy=0;entryX=0.5;entryY=0;entryDx=0;entryDy=0;" parent="1" source="LYfTnZYu33YeIZnlkIy6-21" target="LYfTnZYu33YeIZnlkIy6-14" edge="1">
          <mxGeometry relative="1" as="geometry" />
        </mxCell>
        <mxCell id="LYfTnZYu33YeIZnlkIy6-21" value="batas_login=3" style="rounded=0;whiteSpace=wrap;html=1;" parent="1" vertex="1">
          <mxGeometry x="320" y="-700" width="120" height="60" as="geometry" />
        </mxCell>
        <mxCell id="LYfTnZYu33YeIZnlkIy6-25" value="input username" style="shape=parallelogram;perimeter=parallelogramPerimeter;whiteSpace=wrap;html=1;fixedSize=1;" parent="1" vertex="1">
          <mxGeometry x="320" y="-120" width="120" height="60" as="geometry" />
        </mxCell>
        <mxCell id="LYfTnZYu33YeIZnlkIy6-34" style="edgeStyle=orthogonalEdgeStyle;rounded=0;orthogonalLoop=1;jettySize=auto;html=1;exitX=0.5;exitY=1;exitDx=0;exitDy=0;entryX=0.5;entryY=0;entryDx=0;entryDy=0;" parent="1" source="LYfTnZYu33YeIZnlkIy6-25" target="LYfTnZYu33YeIZnlkIy6-35" edge="1">
          <mxGeometry relative="1" as="geometry">
            <mxPoint x="400" y="70" as="targetPoint" />
            <mxPoint x="400" y="-30" as="sourcePoint" />
            <Array as="points" />
          </mxGeometry>
        </mxCell>
        <mxCell id="LYfTnZYu33YeIZnlkIy6-37" style="edgeStyle=orthogonalEdgeStyle;rounded=0;orthogonalLoop=1;jettySize=auto;html=1;exitX=0.5;exitY=1;exitDx=0;exitDy=0;entryX=0.5;entryY=0;entryDx=0;entryDy=0;" parent="1" source="LYfTnZYu33YeIZnlkIy6-35" target="LYfTnZYu33YeIZnlkIy6-36" edge="1">
          <mxGeometry relative="1" as="geometry">
            <mxPoint x="380" y="190" as="targetPoint" />
          </mxGeometry>
        </mxCell>
        <mxCell id="LYfTnZYu33YeIZnlkIy6-35" value="input password" style="shape=parallelogram;perimeter=parallelogramPerimeter;whiteSpace=wrap;html=1;fixedSize=1;" parent="1" vertex="1">
          <mxGeometry x="320" y="40" width="120" height="60" as="geometry" />
        </mxCell>
        <mxCell id="LYfTnZYu33YeIZnlkIy6-43" style="edgeStyle=orthogonalEdgeStyle;rounded=0;orthogonalLoop=1;jettySize=auto;html=1;exitX=0;exitY=0.5;exitDx=0;exitDy=0;" parent="1" source="LYfTnZYu33YeIZnlkIy6-36" target="LYfTnZYu33YeIZnlkIy6-42" edge="1">
          <mxGeometry relative="1" as="geometry" />
        </mxCell>
        <mxCell id="WpUfCcdCp9xO6fRKBpz8-29" style="edgeStyle=orthogonalEdgeStyle;rounded=0;orthogonalLoop=1;jettySize=auto;html=1;exitX=1;exitY=0.5;exitDx=0;exitDy=0;entryX=0.5;entryY=0;entryDx=0;entryDy=0;" parent="1" source="LYfTnZYu33YeIZnlkIy6-36" target="WpUfCcdCp9xO6fRKBpz8-26" edge="1">
          <mxGeometry relative="1" as="geometry">
            <mxPoint x="540" y="235" as="targetPoint" />
          </mxGeometry>
        </mxCell>
        <mxCell id="LYfTnZYu33YeIZnlkIy6-36" value="if username == username_asli == and password == password asli:" style="rhombus;whiteSpace=wrap;html=1;" parent="1" vertex="1">
          <mxGeometry x="315" y="170" width="130" height="130" as="geometry" />
        </mxCell>
        <mxCell id="LYfTnZYu33YeIZnlkIy6-39" value="percobaan login ke-{percobaan + 1}&amp;nbsp;" style="shape=parallelogram;perimeter=parallelogramPerimeter;whiteSpace=wrap;html=1;fixedSize=1;" parent="1" vertex="1">
          <mxGeometry x="315" y="-240" width="130" height="60" as="geometry" />
        </mxCell>
        <mxCell id="LYfTnZYu33YeIZnlkIy6-41" value="" style="endArrow=classic;html=1;rounded=0;exitX=0.5;exitY=1;exitDx=0;exitDy=0;entryX=0.5;entryY=0;entryDx=0;entryDy=0;" parent="1" source="LYfTnZYu33YeIZnlkIy6-39" target="LYfTnZYu33YeIZnlkIy6-25" edge="1">
          <mxGeometry width="50" height="50" relative="1" as="geometry">
            <mxPoint x="670" y="-190" as="sourcePoint" />
            <mxPoint x="720" y="-240" as="targetPoint" />
          </mxGeometry>
        </mxCell>
        <mxCell id="LYfTnZYu33YeIZnlkIy6-42" value="Output login gagal!" style="shape=parallelogram;perimeter=parallelogramPerimeter;whiteSpace=wrap;html=1;fixedSize=1;" parent="1" vertex="1">
          <mxGeometry x="100" y="205" width="120" height="60" as="geometry" />
        </mxCell>
        <mxCell id="WpUfCcdCp9xO6fRKBpz8-1" value="" style="endArrow=classic;html=1;rounded=0;exitX=0.5;exitY=0;exitDx=0;exitDy=0;entryX=0;entryY=0.5;entryDx=0;entryDy=0;edgeStyle=orthogonalEdgeStyle;" parent="1" source="LYfTnZYu33YeIZnlkIy6-42" target="LYfTnZYu33YeIZnlkIy6-19" edge="1">
          <mxGeometry width="50" height="50" relative="1" as="geometry">
            <mxPoint x="150" y="60" as="sourcePoint" />
            <mxPoint x="200" y="10" as="targetPoint" />
          </mxGeometry>
        </mxCell>
        <mxCell id="WpUfCcdCp9xO6fRKBpz8-5" style="edgeStyle=orthogonalEdgeStyle;rounded=0;orthogonalLoop=1;jettySize=auto;html=1;entryX=0;entryY=0.5;entryDx=0;entryDy=0;" parent="1" source="WpUfCcdCp9xO6fRKBpz8-2" target="WpUfCcdCp9xO6fRKBpz8-6" edge="1">
          <mxGeometry relative="1" as="geometry">
            <mxPoint x="930" y="-280" as="targetPoint" />
          </mxGeometry>
        </mxCell>
        <mxCell id="WpUfCcdCp9xO6fRKBpz8-2" value="if not login_berhasil" style="rhombus;whiteSpace=wrap;html=1;" parent="1" vertex="1">
          <mxGeometry x="710" y="-320" width="100" height="80" as="geometry" />
        </mxCell>
        <mxCell id="WpUfCcdCp9xO6fRKBpz8-3" value="" style="endArrow=classic;html=1;rounded=0;exitX=1;exitY=0.5;exitDx=0;exitDy=0;entryX=0.5;entryY=0;entryDx=0;entryDy=0;edgeStyle=orthogonalEdgeStyle;" parent="1" source="LYfTnZYu33YeIZnlkIy6-19" target="WpUfCcdCp9xO6fRKBpz8-2" edge="1">
          <mxGeometry width="50" height="50" relative="1" as="geometry">
            <mxPoint x="400" y="-210" as="sourcePoint" />
            <mxPoint x="650" y="-290" as="targetPoint" />
          </mxGeometry>
        </mxCell>
        <mxCell id="WpUfCcdCp9xO6fRKBpz8-4" value="false" style="text;html=1;align=center;verticalAlign=middle;resizable=0;points=[];autosize=1;strokeColor=none;fillColor=none;" parent="1" vertex="1">
          <mxGeometry x="545" y="-402" width="50" height="30" as="geometry" />
        </mxCell>
        <mxCell id="WpUfCcdCp9xO6fRKBpz8-6" value="&quot;anda gagal login sebanyak 3 kali program di hentikan&quot;" style="rounded=0;whiteSpace=wrap;html=1;" parent="1" vertex="1">
          <mxGeometry x="930" y="-310" width="130" height="60" as="geometry" />
        </mxCell>
        <mxCell id="WpUfCcdCp9xO6fRKBpz8-10" value="false" style="text;html=1;align=center;verticalAlign=middle;resizable=0;points=[];autosize=1;strokeColor=none;fillColor=none;" parent="1" vertex="1">
          <mxGeometry x="835" y="-312" width="50" height="30" as="geometry" />
        </mxCell>
        <mxCell id="WpUfCcdCp9xO6fRKBpz8-31" value="" style="edgeStyle=orthogonalEdgeStyle;rounded=0;orthogonalLoop=1;jettySize=auto;html=1;" parent="1" source="WpUfCcdCp9xO6fRKBpz8-26" target="WpUfCcdCp9xO6fRKBpz8-30" edge="1">
          <mxGeometry relative="1" as="geometry" />
        </mxCell>
        <mxCell id="WpUfCcdCp9xO6fRKBpz8-26" value="login_berhasil = true" style="rounded=0;whiteSpace=wrap;html=1;" parent="1" vertex="1">
          <mxGeometry x="475" y="270" width="120" height="60" as="geometry" />
        </mxCell>
        <mxCell id="WpUfCcdCp9xO6fRKBpz8-27" value="" style="endArrow=classic;html=1;rounded=0;exitX=0;exitY=0.5;exitDx=0;exitDy=0;entryX=0.5;entryY=0;entryDx=0;entryDy=0;edgeStyle=orthogonalEdgeStyle;" parent="1" source="WpUfCcdCp9xO6fRKBpz8-2" target="WpUfCcdCp9xO6fRKBpz8-26" edge="1">
          <mxGeometry width="50" height="50" relative="1" as="geometry">
            <mxPoint x="720" y="30" as="sourcePoint" />
            <mxPoint x="770" y="-20" as="targetPoint" />
          </mxGeometry>
        </mxCell>
        <mxCell id="WpUfCcdCp9xO6fRKBpz8-34" style="edgeStyle=orthogonalEdgeStyle;rounded=0;orthogonalLoop=1;jettySize=auto;html=1;exitX=1;exitY=0.5;exitDx=0;exitDy=0;entryX=0.5;entryY=0;entryDx=0;entryDy=0;" parent="1" source="WpUfCcdCp9xO6fRKBpz8-30" target="WpUfCcdCp9xO6fRKBpz8-32" edge="1">
          <mxGeometry relative="1" as="geometry">
            <mxPoint x="969.9999999999998" y="460.217391304348" as="targetPoint" />
          </mxGeometry>
        </mxCell>
        <mxCell id="WpUfCcdCp9xO6fRKBpz8-30" value="while true" style="rhombus;whiteSpace=wrap;html=1;" parent="1" vertex="1">
          <mxGeometry x="740" y="420" width="80" height="80" as="geometry" />
        </mxCell>
        <mxCell id="WpUfCcdCp9xO6fRKBpz8-38" style="edgeStyle=orthogonalEdgeStyle;rounded=0;orthogonalLoop=1;jettySize=auto;html=1;entryX=0.5;entryY=0;entryDx=0;entryDy=0;" parent="1" source="WpUfCcdCp9xO6fRKBpz8-32" target="WpUfCcdCp9xO6fRKBpz8-37" edge="1">
          <mxGeometry relative="1" as="geometry" />
        </mxCell>
        <mxCell id="WpUfCcdCp9xO6fRKBpz8-32" value="input pilihan&amp;nbsp;" style="shape=parallelogram;perimeter=parallelogramPerimeter;whiteSpace=wrap;html=1;fixedSize=1;" parent="1" vertex="1">
          <mxGeometry x="880" y="600" width="120" height="60" as="geometry" />
        </mxCell>
        <mxCell id="WpUfCcdCp9xO6fRKBpz8-41" style="edgeStyle=orthogonalEdgeStyle;rounded=0;orthogonalLoop=1;jettySize=auto;html=1;exitX=1;exitY=0.5;exitDx=0;exitDy=0;entryX=0.5;entryY=0;entryDx=0;entryDy=0;" parent="1" source="WpUfCcdCp9xO6fRKBpz8-37" target="WpUfCcdCp9xO6fRKBpz8-46" edge="1">
          <mxGeometry relative="1" as="geometry">
            <mxPoint x="1100" y="850" as="targetPoint" />
          </mxGeometry>
        </mxCell>
        <mxCell id="WpUfCcdCp9xO6fRKBpz8-37" value="if pilihan == &quot;1&quot;" style="rhombus;whiteSpace=wrap;html=1;" parent="1" vertex="1">
          <mxGeometry x="900" y="760" width="80" height="80" as="geometry" />
        </mxCell>
        <mxCell id="WpUfCcdCp9xO6fRKBpz8-42" value="true" style="text;html=1;align=center;verticalAlign=middle;resizable=0;points=[];autosize=1;strokeColor=none;fillColor=none;" parent="1" vertex="1">
          <mxGeometry x="860" y="438" width="40" height="30" as="geometry" />
        </mxCell>
        <mxCell id="WpUfCcdCp9xO6fRKBpz8-44" style="edgeStyle=orthogonalEdgeStyle;rounded=0;orthogonalLoop=1;jettySize=auto;html=1;entryX=0.5;entryY=0;entryDx=0;entryDy=0;" parent="1" edge="1">
          <mxGeometry relative="1" as="geometry">
            <mxPoint x="1100" y="860" as="sourcePoint" />
            <mxPoint x="1100" y="860" as="targetPoint" />
          </mxGeometry>
        </mxCell>
        <mxCell id="WpUfCcdCp9xO6fRKBpz8-49" style="edgeStyle=orthogonalEdgeStyle;rounded=0;orthogonalLoop=1;jettySize=auto;html=1;entryX=0.5;entryY=0;entryDx=0;entryDy=0;" parent="1" source="WpUfCcdCp9xO6fRKBpz8-46" target="WpUfCcdCp9xO6fRKBpz8-48" edge="1">
          <mxGeometry relative="1" as="geometry" />
        </mxCell>
        <mxCell id="WpUfCcdCp9xO6fRKBpz8-46" value="nama_furnitur = &quot;sofa&quot;" style="rounded=0;whiteSpace=wrap;html=1;" parent="1" vertex="1">
          <mxGeometry x="1050" y="860" width="120" height="60" as="geometry" />
        </mxCell>
        <mxCell id="WpUfCcdCp9xO6fRKBpz8-52" style="edgeStyle=orthogonalEdgeStyle;rounded=0;orthogonalLoop=1;jettySize=auto;html=1;entryX=0.5;entryY=0;entryDx=0;entryDy=0;" parent="1" source="WpUfCcdCp9xO6fRKBpz8-48" target="WpUfCcdCp9xO6fRKBpz8-53" edge="1">
          <mxGeometry relative="1" as="geometry">
            <mxPoint x="930" y="1090" as="targetPoint" />
            <Array as="points">
              <mxPoint x="930" y="1030" />
            </Array>
          </mxGeometry>
        </mxCell>
        <mxCell id="WpUfCcdCp9xO6fRKBpz8-48" value="harga = 500000" style="rounded=0;whiteSpace=wrap;html=1;" parent="1" vertex="1">
          <mxGeometry x="1050" y="1000" width="120" height="60" as="geometry" />
        </mxCell>
        <mxCell id="WpUfCcdCp9xO6fRKBpz8-55" value="" style="edgeStyle=orthogonalEdgeStyle;rounded=0;orthogonalLoop=1;jettySize=auto;html=1;" parent="1" source="WpUfCcdCp9xO6fRKBpz8-53" target="WpUfCcdCp9xO6fRKBpz8-54" edge="1">
          <mxGeometry relative="1" as="geometry" />
        </mxCell>
        <mxCell id="WpUfCcdCp9xO6fRKBpz8-53" value="input jumlah&amp;nbsp;" style="rounded=0;whiteSpace=wrap;html=1;" parent="1" vertex="1">
          <mxGeometry x="870" y="1090" width="120" height="60" as="geometry" />
        </mxCell>
        <mxCell id="WpUfCcdCp9xO6fRKBpz8-69" style="edgeStyle=orthogonalEdgeStyle;rounded=0;orthogonalLoop=1;jettySize=auto;html=1;exitX=1;exitY=0.5;exitDx=0;exitDy=0;" parent="1" source="WpUfCcdCp9xO6fRKBpz8-54" target="WpUfCcdCp9xO6fRKBpz8-70" edge="1">
          <mxGeometry relative="1" as="geometry">
            <mxPoint x="1080" y="1324.7058823529414" as="targetPoint" />
          </mxGeometry>
        </mxCell>
        <mxCell id="WpUfCcdCp9xO6fRKBpz8-54" value="if not jumlah.isdigit () or int (jumlah) &amp;lt;= 0" style="rhombus;whiteSpace=wrap;html=1;" parent="1" vertex="1">
          <mxGeometry x="867.5" y="1260" width="125" height="130" as="geometry" />
        </mxCell>
        <mxCell id="WpUfCcdCp9xO6fRKBpz8-72" style="edgeStyle=orthogonalEdgeStyle;rounded=0;orthogonalLoop=1;jettySize=auto;html=1;entryX=0.5;entryY=0;entryDx=0;entryDy=0;" parent="1" source="WpUfCcdCp9xO6fRKBpz8-70" target="WpUfCcdCp9xO6fRKBpz8-71" edge="1">
          <mxGeometry relative="1" as="geometry" />
        </mxCell>
        <mxCell id="WpUfCcdCp9xO6fRKBpz8-70" value="jumlah = jumlah&amp;nbsp;" style="rounded=0;whiteSpace=wrap;html=1;" parent="1" vertex="1">
          <mxGeometry x="990" y="1430" width="120" height="60" as="geometry" />
        </mxCell>
        <mxCell id="WpUfCcdCp9xO6fRKBpz8-76" style="edgeStyle=orthogonalEdgeStyle;rounded=0;orthogonalLoop=1;jettySize=auto;html=1;exitX=0.5;exitY=1;exitDx=0;exitDy=0;entryX=0.5;entryY=0;entryDx=0;entryDy=0;" parent="1" source="WpUfCcdCp9xO6fRKBpz8-71" target="WpUfCcdCp9xO6fRKBpz8-75" edge="1">
          <mxGeometry relative="1" as="geometry" />
        </mxCell>
        <mxCell id="WpUfCcdCp9xO6fRKBpz8-71" value="total_bayar = 0" style="rounded=0;whiteSpace=wrap;html=1;" parent="1" vertex="1">
          <mxGeometry x="990" y="1550" width="120" height="70" as="geometry" />
        </mxCell>
        <mxCell id="WpUfCcdCp9xO6fRKBpz8-75" value="end" style="rounded=1;whiteSpace=wrap;html=1;" parent="1" vertex="1">
          <mxGeometry x="990" y="1670" width="120" height="60" as="geometry" />
        </mxCell>
      </root>
    </mxGraphModel>
  </diagram>
  <diagram id="Z9yGN_RMW_34atVlPL8L" name="Page-2">
    <mxGraphModel dx="992" dy="543" grid="1" gridSize="10" guides="1" tooltips="1" connect="1" arrows="1" fold="1" page="1" pageScale="1" pageWidth="827" pageHeight="1169" math="0" shadow="0">
      <root>
        <mxCell id="0" />
        <mxCell id="1" parent="0" />
        <mxCell id="Jk32lC9stddEkb2-xA3J-1" value="mulai" style="ellipse;whiteSpace=wrap;html=1;" vertex="1" parent="1">
          <mxGeometry x="310" y="90" width="120" height="80" as="geometry" />
        </mxCell>
        <mxCell id="Jk32lC9stddEkb2-xA3J-3" style="edgeStyle=orthogonalEdgeStyle;rounded=0;orthogonalLoop=1;jettySize=auto;html=1;exitX=0.5;exitY=1;exitDx=0;exitDy=0;entryX=0.5;entryY=0;entryDx=0;entryDy=0;" edge="1" parent="1" source="Jk32lC9stddEkb2-xA3J-1" target="Jk32lC9stddEkb2-xA3J-4">
          <mxGeometry relative="1" as="geometry">
            <mxPoint x="369.96000000000004" y="260.02" as="targetPoint" />
            <Array as="points" />
          </mxGeometry>
        </mxCell>
        <mxCell id="Jk32lC9stddEkb2-xA3J-6" style="edgeStyle=orthogonalEdgeStyle;rounded=0;orthogonalLoop=1;jettySize=auto;html=1;entryX=0.5;entryY=0;entryDx=0;entryDy=0;" edge="1" parent="1" source="Jk32lC9stddEkb2-xA3J-4" target="Jk32lC9stddEkb2-xA3J-5">
          <mxGeometry relative="1" as="geometry" />
        </mxCell>
        <mxCell id="Jk32lC9stddEkb2-xA3J-4" value="input nilai" style="shape=parallelogram;perimeter=parallelogramPerimeter;whiteSpace=wrap;html=1;fixedSize=1;" vertex="1" parent="1">
          <mxGeometry x="300" y="280" width="140" height="80" as="geometry" />
        </mxCell>
        <mxCell id="Jk32lC9stddEkb2-xA3J-5" value="if nilai ==&amp;nbsp; &quot;80&quot;" style="rhombus;whiteSpace=wrap;html=1;" vertex="1" parent="1">
          <mxGeometry x="320" y="450" width="100" height="100" as="geometry" />
        </mxCell>
        <mxCell id="Jk32lC9stddEkb2-xA3J-14" value="elif nilai == &quot;60&quot;" style="rhombus;whiteSpace=wrap;html=1;" vertex="1" parent="1">
          <mxGeometry x="200" y="570" width="80" height="80" as="geometry" />
        </mxCell>
        <mxCell id="Jk32lC9stddEkb2-xA3J-18" value="" style="endArrow=classic;html=1;rounded=0;exitX=0.5;exitY=0;exitDx=0;exitDy=0;entryX=0;entryY=0.5;entryDx=0;entryDy=0;edgeStyle=orthogonalEdgeStyle;" edge="1" parent="1" source="Jk32lC9stddEkb2-xA3J-14" target="Jk32lC9stddEkb2-xA3J-5">
          <mxGeometry width="50" height="50" relative="1" as="geometry">
            <mxPoint x="370" y="550" as="sourcePoint" />
            <mxPoint x="420" y="500" as="targetPoint" />
          </mxGeometry>
        </mxCell>
        <mxCell id="Jk32lC9stddEkb2-xA3J-19" value="output &quot;selamat, kamu lulus dengan perdikat sangat baik" style="shape=parallelogram;perimeter=parallelogramPerimeter;whiteSpace=wrap;html=1;fixedSize=1;" vertex="1" parent="1">
          <mxGeometry x="490" y="580" width="140" height="60" as="geometry" />
        </mxCell>
        <mxCell id="Jk32lC9stddEkb2-xA3J-21" value="" style="endArrow=classic;html=1;rounded=0;entryX=1;entryY=0.5;entryDx=0;entryDy=0;exitX=0.5;exitY=0;exitDx=0;exitDy=0;edgeStyle=orthogonalEdgeStyle;" edge="1" parent="1" source="Jk32lC9stddEkb2-xA3J-19" target="Jk32lC9stddEkb2-xA3J-5">
          <mxGeometry width="50" height="50" relative="1" as="geometry">
            <mxPoint x="410" y="680" as="sourcePoint" />
            <mxPoint x="460" y="630" as="targetPoint" />
          </mxGeometry>
        </mxCell>
        <mxCell id="Jk32lC9stddEkb2-xA3J-22" value="true" style="text;html=1;align=center;verticalAlign=middle;resizable=0;points=[];autosize=1;strokeColor=none;fillColor=none;" vertex="1" parent="1">
          <mxGeometry x="450" y="478" width="40" height="30" as="geometry" />
        </mxCell>
        <mxCell id="Jk32lC9stddEkb2-xA3J-24" value="false&amp;nbsp;" style="text;html=1;align=center;verticalAlign=middle;resizable=0;points=[];autosize=1;strokeColor=none;fillColor=none;" vertex="1" parent="1">
          <mxGeometry x="245" y="478" width="50" height="30" as="geometry" />
        </mxCell>
        <mxCell id="Jk32lC9stddEkb2-xA3J-25" value="output &quot;kamu lulus,tapi perlu bimbingan tambahan&amp;nbsp;" style="shape=parallelogram;perimeter=parallelogramPerimeter;whiteSpace=wrap;html=1;fixedSize=1;" vertex="1" parent="1">
          <mxGeometry x="260" y="710" width="120" height="60" as="geometry" />
        </mxCell>
        <mxCell id="Jk32lC9stddEkb2-xA3J-26" value="" style="endArrow=classic;html=1;rounded=0;exitX=1;exitY=0.5;exitDx=0;exitDy=0;entryX=0.57;entryY=-0.036;entryDx=0;entryDy=0;entryPerimeter=0;edgeStyle=orthogonalEdgeStyle;" edge="1" parent="1" source="Jk32lC9stddEkb2-xA3J-14" target="Jk32lC9stddEkb2-xA3J-25">
          <mxGeometry width="50" height="50" relative="1" as="geometry">
            <mxPoint x="350" y="670" as="sourcePoint" />
            <mxPoint x="400" y="620" as="targetPoint" />
          </mxGeometry>
        </mxCell>
        <mxCell id="Jk32lC9stddEkb2-xA3J-29" value="true" style="text;html=1;align=center;verticalAlign=middle;resizable=0;points=[];autosize=1;strokeColor=none;fillColor=none;" vertex="1" parent="1">
          <mxGeometry x="280" y="588" width="40" height="30" as="geometry" />
        </mxCell>
        <mxCell id="Jk32lC9stddEkb2-xA3J-30" value="output &quot;kamu harus mengulangi ujian&quot;" style="shape=parallelogram;perimeter=parallelogramPerimeter;whiteSpace=wrap;html=1;fixedSize=1;" vertex="1" parent="1">
          <mxGeometry x="60" y="730" width="120" height="60" as="geometry" />
        </mxCell>
        <mxCell id="Jk32lC9stddEkb2-xA3J-31" value="" style="endArrow=classic;html=1;rounded=0;entryX=0;entryY=0.5;entryDx=0;entryDy=0;exitX=0.611;exitY=-0.001;exitDx=0;exitDy=0;exitPerimeter=0;edgeStyle=orthogonalEdgeStyle;" edge="1" parent="1" source="Jk32lC9stddEkb2-xA3J-30" target="Jk32lC9stddEkb2-xA3J-14">
          <mxGeometry width="50" height="50" relative="1" as="geometry">
            <mxPoint x="380" y="730" as="sourcePoint" />
            <mxPoint x="430" y="680" as="targetPoint" />
          </mxGeometry>
        </mxCell>
        <mxCell id="Jk32lC9stddEkb2-xA3J-32" value="selesai" style="ellipse;whiteSpace=wrap;html=1;" vertex="1" parent="1">
          <mxGeometry x="380" y="910" width="120" height="80" as="geometry" />
        </mxCell>
        <mxCell id="Jk32lC9stddEkb2-xA3J-35" value="" style="endArrow=classic;startArrow=classic;html=1;rounded=0;exitX=0.417;exitY=1;exitDx=0;exitDy=0;exitPerimeter=0;entryX=0.002;entryY=0.397;entryDx=0;entryDy=0;entryPerimeter=0;edgeStyle=orthogonalEdgeStyle;" edge="1" parent="1" source="Jk32lC9stddEkb2-xA3J-30" target="Jk32lC9stddEkb2-xA3J-32">
          <mxGeometry width="50" height="50" relative="1" as="geometry">
            <mxPoint x="400" y="760" as="sourcePoint" />
            <mxPoint x="450" y="710" as="targetPoint" />
          </mxGeometry>
        </mxCell>
        <mxCell id="Jk32lC9stddEkb2-xA3J-37" value="" style="endArrow=classic;startArrow=classic;html=1;rounded=0;entryX=0.5;entryY=1;entryDx=0;entryDy=0;exitX=1;exitY=0.375;exitDx=0;exitDy=0;exitPerimeter=0;edgeStyle=orthogonalEdgeStyle;" edge="1" parent="1" source="Jk32lC9stddEkb2-xA3J-32" target="Jk32lC9stddEkb2-xA3J-19">
          <mxGeometry width="50" height="50" relative="1" as="geometry">
            <mxPoint x="400" y="760" as="sourcePoint" />
            <mxPoint x="450" y="710" as="targetPoint" />
          </mxGeometry>
        </mxCell>
      </root>
    </mxGraphModel>
  </diagram>
  <diagram id="cqmvaP9fR8wKRkLOfJuI" name="Page-3">
    <mxGraphModel dx="1213" dy="1821" grid="1" gridSize="10" guides="1" tooltips="1" connect="1" arrows="1" fold="1" page="1" pageScale="1" pageWidth="827" pageHeight="1169" math="0" shadow="0">
      <root>
        <mxCell id="0" />
        <mxCell id="1" parent="0" />
        <mxCell id="hF3Q2Q1DuJKhR1s3KDPS-4" style="edgeStyle=orthogonalEdgeStyle;rounded=0;orthogonalLoop=1;jettySize=auto;html=1;entryX=0.5;entryY=0;entryDx=0;entryDy=0;" edge="1" parent="1" source="B0-3vHnuaoGszhS2SNkm-1" target="hF3Q2Q1DuJKhR1s3KDPS-1">
          <mxGeometry relative="1" as="geometry" />
        </mxCell>
        <mxCell id="B0-3vHnuaoGszhS2SNkm-1" value="Mulai&amp;nbsp;" style="ellipse;whiteSpace=wrap;html=1;" parent="1" vertex="1">
          <mxGeometry x="294" y="-750" width="120" height="80" as="geometry" />
        </mxCell>
        <mxCell id="hF3Q2Q1DuJKhR1s3KDPS-6" style="edgeStyle=orthogonalEdgeStyle;rounded=0;orthogonalLoop=1;jettySize=auto;html=1;entryX=0.5;entryY=0;entryDx=0;entryDy=0;" edge="1" parent="1" source="hF3Q2Q1DuJKhR1s3KDPS-1" target="hF3Q2Q1DuJKhR1s3KDPS-5">
          <mxGeometry relative="1" as="geometry" />
        </mxCell>
        <mxCell id="hF3Q2Q1DuJKhR1s3KDPS-1" value="batu_kapur= {1,2,3,4,5,6,7,8,9,10 jumblah = 0" style="rounded=0;whiteSpace=wrap;html=1;" vertex="1" parent="1">
          <mxGeometry x="294" y="-584" width="120" height="60" as="geometry" />
        </mxCell>
        <mxCell id="hF3Q2Q1DuJKhR1s3KDPS-5" value="for batu in batu_kapur" style="rhombus;whiteSpace=wrap;html=1;" vertex="1" parent="1">
          <mxGeometry x="314" y="-440" width="80" height="80" as="geometry" />
        </mxCell>
        <mxCell id="hF3Q2Q1DuJKhR1s3KDPS-15" style="edgeStyle=orthogonalEdgeStyle;rounded=0;orthogonalLoop=1;jettySize=auto;html=1;exitX=0.75;exitY=1;exitDx=0;exitDy=0;" edge="1" parent="1" source="hF3Q2Q1DuJKhR1s3KDPS-7" target="hF3Q2Q1DuJKhR1s3KDPS-13">
          <mxGeometry relative="1" as="geometry" />
        </mxCell>
        <mxCell id="hF3Q2Q1DuJKhR1s3KDPS-7" value="&quot;jumlah total batu kapur disekolah&quot;" style="rounded=0;whiteSpace=wrap;html=1;" vertex="1" parent="1">
          <mxGeometry x="490" y="-370" width="120" height="60" as="geometry" />
        </mxCell>
        <mxCell id="hF3Q2Q1DuJKhR1s3KDPS-9" value="" style="endArrow=classic;startArrow=classic;html=1;rounded=0;exitX=1;exitY=0.5;exitDx=0;exitDy=0;entryX=0.635;entryY=0.002;entryDx=0;entryDy=0;entryPerimeter=0;edgeStyle=orthogonalEdgeStyle;" edge="1" parent="1" source="hF3Q2Q1DuJKhR1s3KDPS-5" target="hF3Q2Q1DuJKhR1s3KDPS-7">
          <mxGeometry width="50" height="50" relative="1" as="geometry">
            <mxPoint x="470" y="-430" as="sourcePoint" />
            <mxPoint x="520" y="-480" as="targetPoint" />
          </mxGeometry>
        </mxCell>
        <mxCell id="hF3Q2Q1DuJKhR1s3KDPS-10" value="jumlah += batu" style="rounded=0;whiteSpace=wrap;html=1;" vertex="1" parent="1">
          <mxGeometry x="120" y="-350" width="120" height="60" as="geometry" />
        </mxCell>
        <mxCell id="hF3Q2Q1DuJKhR1s3KDPS-12" value="" style="endArrow=classic;startArrow=classic;html=1;rounded=0;entryX=0.5;entryY=0;entryDx=0;entryDy=0;exitX=0;exitY=0.5;exitDx=0;exitDy=0;edgeStyle=orthogonalEdgeStyle;" edge="1" parent="1" source="hF3Q2Q1DuJKhR1s3KDPS-5" target="hF3Q2Q1DuJKhR1s3KDPS-10">
          <mxGeometry width="50" height="50" relative="1" as="geometry">
            <mxPoint x="350" y="-360" as="sourcePoint" />
            <mxPoint x="400" y="-410" as="targetPoint" />
          </mxGeometry>
        </mxCell>
        <mxCell id="hF3Q2Q1DuJKhR1s3KDPS-13" value="&quot;pelajaran hari ini : ulangi kebaikan dan hasil nya akan tumbuh&quot;" style="rounded=0;whiteSpace=wrap;html=1;" vertex="1" parent="1">
          <mxGeometry x="520" y="-240" width="120" height="60" as="geometry" />
        </mxCell>
        <mxCell id="hF3Q2Q1DuJKhR1s3KDPS-16" value="end" style="ellipse;whiteSpace=wrap;html=1;" vertex="1" parent="1">
          <mxGeometry x="370" y="-110" width="120" height="80" as="geometry" />
        </mxCell>
        <mxCell id="hF3Q2Q1DuJKhR1s3KDPS-17" value="" style="endArrow=classic;startArrow=classic;html=1;rounded=0;exitX=0.5;exitY=1;exitDx=0;exitDy=0;entryX=0;entryY=0.375;entryDx=0;entryDy=0;entryPerimeter=0;edgeStyle=orthogonalEdgeStyle;" edge="1" parent="1" source="hF3Q2Q1DuJKhR1s3KDPS-10" target="hF3Q2Q1DuJKhR1s3KDPS-16">
          <mxGeometry width="50" height="50" relative="1" as="geometry">
            <mxPoint x="350" y="-360" as="sourcePoint" />
            <mxPoint x="400" y="-410" as="targetPoint" />
          </mxGeometry>
        </mxCell>
        <mxCell id="hF3Q2Q1DuJKhR1s3KDPS-24" value="" style="endArrow=classic;startArrow=classic;html=1;rounded=0;exitX=0.5;exitY=1;exitDx=0;exitDy=0;entryX=1;entryY=0.5;entryDx=0;entryDy=0;edgeStyle=orthogonalEdgeStyle;" edge="1" parent="1" source="hF3Q2Q1DuJKhR1s3KDPS-13" target="hF3Q2Q1DuJKhR1s3KDPS-16">
          <mxGeometry width="50" height="50" relative="1" as="geometry">
            <mxPoint x="350" y="-180" as="sourcePoint" />
            <mxPoint x="400" y="-230" as="targetPoint" />
          </mxGeometry>
        </mxCell>
      </root>
    </mxGraphModel>
  </diagram>
  <diagram id="i7aKJFOj7nL7s6FAF49a" name="Page-4">
    <mxGraphModel dx="3055" dy="915" grid="1" gridSize="10" guides="1" tooltips="1" connect="1" arrows="1" fold="1" page="1" pageScale="1" pageWidth="827" pageHeight="1169" math="0" shadow="0">
      <root>
        <mxCell id="0" />
        <mxCell id="1" parent="0" />
        <mxCell id="zVJgpEIolp_prnYdFTZU-4" style="edgeStyle=orthogonalEdgeStyle;rounded=0;orthogonalLoop=1;jettySize=auto;html=1;entryX=0.5;entryY=0;entryDx=0;entryDy=0;" parent="1" source="zVJgpEIolp_prnYdFTZU-2" target="zVJgpEIolp_prnYdFTZU-3" edge="1">
          <mxGeometry relative="1" as="geometry" />
        </mxCell>
        <mxCell id="zVJgpEIolp_prnYdFTZU-2" value="start" style="ellipse;whiteSpace=wrap;html=1;" parent="1" vertex="1">
          <mxGeometry x="310" y="120" width="120" height="80" as="geometry" />
        </mxCell>
        <mxCell id="zVJgpEIolp_prnYdFTZU-33" style="edgeStyle=orthogonalEdgeStyle;rounded=0;orthogonalLoop=1;jettySize=auto;html=1;" parent="1" source="zVJgpEIolp_prnYdFTZU-3" target="zVJgpEIolp_prnYdFTZU-31" edge="1">
          <mxGeometry relative="1" as="geometry" />
        </mxCell>
        <mxCell id="zVJgpEIolp_prnYdFTZU-3" value="menu utama" style="shape=parallelogram;perimeter=parallelogramPerimeter;whiteSpace=wrap;html=1;fixedSize=1;" parent="1" vertex="1">
          <mxGeometry x="310" y="280" width="120" height="60" as="geometry" />
        </mxCell>
        <mxCell id="zVJgpEIolp_prnYdFTZU-19" style="edgeStyle=orthogonalEdgeStyle;rounded=0;orthogonalLoop=1;jettySize=auto;html=1;entryX=1;entryY=0.5;entryDx=0;entryDy=0;" parent="1" source="zVJgpEIolp_prnYdFTZU-8" target="zVJgpEIolp_prnYdFTZU-17" edge="1">
          <mxGeometry relative="1" as="geometry" />
        </mxCell>
        <mxCell id="zVJgpEIolp_prnYdFTZU-42" style="edgeStyle=orthogonalEdgeStyle;rounded=0;orthogonalLoop=1;jettySize=auto;html=1;exitX=0.5;exitY=1;exitDx=0;exitDy=0;" parent="1" source="zVJgpEIolp_prnYdFTZU-8" target="zVJgpEIolp_prnYdFTZU-40" edge="1">
          <mxGeometry relative="1" as="geometry" />
        </mxCell>
        <mxCell id="zVJgpEIolp_prnYdFTZU-8" value="login" style="rhombus;whiteSpace=wrap;html=1;" parent="1" vertex="1">
          <mxGeometry x="150" y="383" width="80" height="80" as="geometry" />
        </mxCell>
        <mxCell id="zVJgpEIolp_prnYdFTZU-21" style="edgeStyle=orthogonalEdgeStyle;rounded=0;orthogonalLoop=1;jettySize=auto;html=1;exitX=0;exitY=0.5;exitDx=0;exitDy=0;entryX=1;entryY=0.5;entryDx=0;entryDy=0;" parent="1" source="zVJgpEIolp_prnYdFTZU-17" target="zVJgpEIolp_prnYdFTZU-20" edge="1">
          <mxGeometry relative="1" as="geometry" />
        </mxCell>
        <mxCell id="zVJgpEIolp_prnYdFTZU-17" value="keluar" style="rhombus;whiteSpace=wrap;html=1;" parent="1" vertex="1">
          <mxGeometry x="20" y="383" width="80" height="80" as="geometry" />
        </mxCell>
        <mxCell id="zVJgpEIolp_prnYdFTZU-20" value="input tidak vlid&amp;nbsp;" style="shape=parallelogram;perimeter=parallelogramPerimeter;whiteSpace=wrap;html=1;fixedSize=1;" parent="1" vertex="1">
          <mxGeometry x="-160" y="393" width="120" height="60" as="geometry" />
        </mxCell>
        <mxCell id="zVJgpEIolp_prnYdFTZU-24" value="" style="endArrow=classic;html=1;rounded=0;entryX=0.613;entryY=0.07;entryDx=0;entryDy=0;entryPerimeter=0;edgeStyle=orthogonalEdgeStyle;" parent="1" source="zVJgpEIolp_prnYdFTZU-3" target="zVJgpEIolp_prnYdFTZU-20" edge="1">
          <mxGeometry width="50" height="50" relative="1" as="geometry">
            <mxPoint x="330" y="390" as="sourcePoint" />
            <mxPoint x="380" y="340" as="targetPoint" />
          </mxGeometry>
        </mxCell>
        <mxCell id="zVJgpEIolp_prnYdFTZU-25" value="no" style="text;html=1;align=center;verticalAlign=middle;resizable=0;points=[];autosize=1;strokeColor=none;fillColor=none;" parent="1" vertex="1">
          <mxGeometry x="-20" y="393" width="40" height="30" as="geometry" />
        </mxCell>
        <mxCell id="zVJgpEIolp_prnYdFTZU-26" value="no" style="text;html=1;align=center;verticalAlign=middle;resizable=0;points=[];autosize=1;strokeColor=none;fillColor=none;" parent="1" vertex="1">
          <mxGeometry x="110" y="393" width="40" height="30" as="geometry" />
        </mxCell>
        <mxCell id="zVJgpEIolp_prnYdFTZU-36" style="edgeStyle=orthogonalEdgeStyle;rounded=0;orthogonalLoop=1;jettySize=auto;html=1;exitX=0;exitY=0.5;exitDx=0;exitDy=0;entryX=1;entryY=0.5;entryDx=0;entryDy=0;" parent="1" source="zVJgpEIolp_prnYdFTZU-31" target="zVJgpEIolp_prnYdFTZU-8" edge="1">
          <mxGeometry relative="1" as="geometry" />
        </mxCell>
        <mxCell id="zVJgpEIolp_prnYdFTZU-31" value="register" style="rhombus;whiteSpace=wrap;html=1;" parent="1" vertex="1">
          <mxGeometry x="330" y="383" width="80" height="80" as="geometry" />
        </mxCell>
        <mxCell id="zVJgpEIolp_prnYdFTZU-37" value="no" style="text;html=1;align=center;verticalAlign=middle;resizable=0;points=[];autosize=1;strokeColor=none;fillColor=none;" parent="1" vertex="1">
          <mxGeometry x="260" y="393" width="40" height="30" as="geometry" />
        </mxCell>
        <mxCell id="zVJgpEIolp_prnYdFTZU-38" value="akun berhasil di buat&amp;nbsp;" style="rounded=0;whiteSpace=wrap;html=1;" parent="1" vertex="1">
          <mxGeometry x="310" y="630" width="120" height="60" as="geometry" />
        </mxCell>
        <mxCell id="zVJgpEIolp_prnYdFTZU-44" style="edgeStyle=orthogonalEdgeStyle;rounded=0;orthogonalLoop=1;jettySize=auto;html=1;entryX=0.5;entryY=0;entryDx=0;entryDy=0;" parent="1" source="zVJgpEIolp_prnYdFTZU-40" target="zVJgpEIolp_prnYdFTZU-43" edge="1">
          <mxGeometry relative="1" as="geometry" />
        </mxCell>
        <mxCell id="zVJgpEIolp_prnYdFTZU-40" value="input username dan password" style="shape=parallelogram;perimeter=parallelogramPerimeter;whiteSpace=wrap;html=1;fixedSize=1;" parent="1" vertex="1">
          <mxGeometry x="130" y="510" width="120" height="60" as="geometry" />
        </mxCell>
        <mxCell id="zVJgpEIolp_prnYdFTZU-48" style="edgeStyle=orthogonalEdgeStyle;rounded=0;orthogonalLoop=1;jettySize=auto;html=1;entryX=0.5;entryY=0;entryDx=0;entryDy=0;" parent="1" source="zVJgpEIolp_prnYdFTZU-43" target="zVJgpEIolp_prnYdFTZU-47" edge="1">
          <mxGeometry relative="1" as="geometry" />
        </mxCell>
        <mxCell id="zVJgpEIolp_prnYdFTZU-43" value="berhasil login&amp;nbsp;" style="rhombus;whiteSpace=wrap;html=1;" parent="1" vertex="1">
          <mxGeometry x="150" y="630" width="80" height="80" as="geometry" />
        </mxCell>
        <mxCell id="zVJgpEIolp_prnYdFTZU-50" style="edgeStyle=orthogonalEdgeStyle;rounded=0;orthogonalLoop=1;jettySize=auto;html=1;entryX=0.5;entryY=0;entryDx=0;entryDy=0;" parent="1" source="zVJgpEIolp_prnYdFTZU-47" target="zVJgpEIolp_prnYdFTZU-49" edge="1">
          <mxGeometry relative="1" as="geometry" />
        </mxCell>
        <mxCell id="zVJgpEIolp_prnYdFTZU-47" value="admin?" style="rhombus;whiteSpace=wrap;html=1;" parent="1" vertex="1">
          <mxGeometry x="150" y="760" width="80" height="80" as="geometry" />
        </mxCell>
        <mxCell id="zVJgpEIolp_prnYdFTZU-53" style="edgeStyle=orthogonalEdgeStyle;rounded=0;orthogonalLoop=1;jettySize=auto;html=1;entryX=0.5;entryY=0;entryDx=0;entryDy=0;" parent="1" source="zVJgpEIolp_prnYdFTZU-49" target="zVJgpEIolp_prnYdFTZU-52" edge="1">
          <mxGeometry relative="1" as="geometry" />
        </mxCell>
        <mxCell id="zVJgpEIolp_prnYdFTZU-90" style="edgeStyle=orthogonalEdgeStyle;rounded=0;orthogonalLoop=1;jettySize=auto;html=1;" parent="1" source="zVJgpEIolp_prnYdFTZU-49" edge="1">
          <mxGeometry relative="1" as="geometry">
            <mxPoint x="-460" y="1610" as="targetPoint" />
          </mxGeometry>
        </mxCell>
        <mxCell id="zVJgpEIolp_prnYdFTZU-49" value="menu admin&amp;nbsp;" style="shape=parallelogram;perimeter=parallelogramPerimeter;whiteSpace=wrap;html=1;fixedSize=1;" parent="1" vertex="1">
          <mxGeometry x="130" y="900" width="120" height="60" as="geometry" />
        </mxCell>
        <mxCell id="zVJgpEIolp_prnYdFTZU-51" value="yes" style="text;html=1;align=center;verticalAlign=middle;resizable=0;points=[];autosize=1;strokeColor=none;fillColor=none;" parent="1" vertex="1">
          <mxGeometry x="190" y="838" width="40" height="30" as="geometry" />
        </mxCell>
        <mxCell id="zVJgpEIolp_prnYdFTZU-54" style="edgeStyle=orthogonalEdgeStyle;rounded=0;orthogonalLoop=1;jettySize=auto;html=1;exitX=0;exitY=0.5;exitDx=0;exitDy=0;" parent="1" source="zVJgpEIolp_prnYdFTZU-52" target="zVJgpEIolp_prnYdFTZU-55" edge="1">
          <mxGeometry relative="1" as="geometry">
            <mxPoint x="59.99999999999977" y="1069.6363636363635" as="targetPoint" />
          </mxGeometry>
        </mxCell>
        <mxCell id="zVJgpEIolp_prnYdFTZU-57" style="edgeStyle=orthogonalEdgeStyle;rounded=0;orthogonalLoop=1;jettySize=auto;html=1;exitX=0.5;exitY=1;exitDx=0;exitDy=0;" parent="1" source="zVJgpEIolp_prnYdFTZU-52" target="zVJgpEIolp_prnYdFTZU-56" edge="1">
          <mxGeometry relative="1" as="geometry" />
        </mxCell>
        <mxCell id="zVJgpEIolp_prnYdFTZU-52" value="tambah data customer" style="rhombus;whiteSpace=wrap;html=1;" parent="1" vertex="1">
          <mxGeometry x="150" y="1030" width="80" height="80" as="geometry" />
        </mxCell>
        <mxCell id="zVJgpEIolp_prnYdFTZU-82" style="edgeStyle=orthogonalEdgeStyle;rounded=0;orthogonalLoop=1;jettySize=auto;html=1;" parent="1" source="zVJgpEIolp_prnYdFTZU-55" target="zVJgpEIolp_prnYdFTZU-83" edge="1">
          <mxGeometry relative="1" as="geometry">
            <mxPoint x="-240" y="1069.9963636363634" as="targetPoint" />
          </mxGeometry>
        </mxCell>
        <mxCell id="zVJgpEIolp_prnYdFTZU-55" value="input nama item boneka" style="shape=parallelogram;perimeter=parallelogramPerimeter;whiteSpace=wrap;html=1;fixedSize=1;" parent="1" vertex="1">
          <mxGeometry x="-100.00000000000023" y="1039.9963636363634" width="120" height="60" as="geometry" />
        </mxCell>
        <mxCell id="zVJgpEIolp_prnYdFTZU-59" style="edgeStyle=orthogonalEdgeStyle;rounded=0;orthogonalLoop=1;jettySize=auto;html=1;exitX=0;exitY=0.5;exitDx=0;exitDy=0;" parent="1" source="zVJgpEIolp_prnYdFTZU-56" target="zVJgpEIolp_prnYdFTZU-58" edge="1">
          <mxGeometry relative="1" as="geometry" />
        </mxCell>
        <mxCell id="zVJgpEIolp_prnYdFTZU-61" style="edgeStyle=orthogonalEdgeStyle;rounded=0;orthogonalLoop=1;jettySize=auto;html=1;exitX=0.5;exitY=1;exitDx=0;exitDy=0;entryX=0.5;entryY=0;entryDx=0;entryDy=0;" parent="1" source="zVJgpEIolp_prnYdFTZU-56" target="zVJgpEIolp_prnYdFTZU-60" edge="1">
          <mxGeometry relative="1" as="geometry" />
        </mxCell>
        <mxCell id="zVJgpEIolp_prnYdFTZU-56" value="lihat data costomer" style="rhombus;whiteSpace=wrap;html=1;" parent="1" vertex="1">
          <mxGeometry x="150" y="1169" width="80" height="80" as="geometry" />
        </mxCell>
        <mxCell id="zVJgpEIolp_prnYdFTZU-58" value="input harga item boneka" style="shape=parallelogram;perimeter=parallelogramPerimeter;whiteSpace=wrap;html=1;fixedSize=1;" parent="1" vertex="1">
          <mxGeometry x="-110" y="1179" width="120" height="60" as="geometry" />
        </mxCell>
        <mxCell id="zVJgpEIolp_prnYdFTZU-64" style="edgeStyle=orthogonalEdgeStyle;rounded=0;orthogonalLoop=1;jettySize=auto;html=1;exitX=0;exitY=0.5;exitDx=0;exitDy=0;" parent="1" source="zVJgpEIolp_prnYdFTZU-60" target="zVJgpEIolp_prnYdFTZU-62" edge="1">
          <mxGeometry relative="1" as="geometry" />
        </mxCell>
        <mxCell id="zVJgpEIolp_prnYdFTZU-66" style="edgeStyle=orthogonalEdgeStyle;rounded=0;orthogonalLoop=1;jettySize=auto;html=1;exitX=0.5;exitY=1;exitDx=0;exitDy=0;" parent="1" source="zVJgpEIolp_prnYdFTZU-60" target="zVJgpEIolp_prnYdFTZU-65" edge="1">
          <mxGeometry relative="1" as="geometry" />
        </mxCell>
        <mxCell id="zVJgpEIolp_prnYdFTZU-60" value="edit data costomer" style="rhombus;whiteSpace=wrap;html=1;" parent="1" vertex="1">
          <mxGeometry x="150" y="1300" width="80" height="80" as="geometry" />
        </mxCell>
        <mxCell id="zVJgpEIolp_prnYdFTZU-81" style="edgeStyle=orthogonalEdgeStyle;rounded=0;orthogonalLoop=1;jettySize=auto;html=1;entryX=1;entryY=0.5;entryDx=0;entryDy=0;" parent="1" source="zVJgpEIolp_prnYdFTZU-62" target="zVJgpEIolp_prnYdFTZU-80" edge="1">
          <mxGeometry relative="1" as="geometry" />
        </mxCell>
        <mxCell id="zVJgpEIolp_prnYdFTZU-62" value="input jumlah&amp;nbsp;&lt;div&gt;boneka&amp;nbsp;&lt;/div&gt;" style="shape=parallelogram;perimeter=parallelogramPerimeter;whiteSpace=wrap;html=1;fixedSize=1;" parent="1" vertex="1">
          <mxGeometry x="-130" y="1310" width="120" height="60" as="geometry" />
        </mxCell>
        <mxCell id="zVJgpEIolp_prnYdFTZU-68" style="edgeStyle=orthogonalEdgeStyle;rounded=0;orthogonalLoop=1;jettySize=auto;html=1;" parent="1" source="zVJgpEIolp_prnYdFTZU-65" target="zVJgpEIolp_prnYdFTZU-67" edge="1">
          <mxGeometry relative="1" as="geometry" />
        </mxCell>
        <mxCell id="zVJgpEIolp_prnYdFTZU-77" style="edgeStyle=orthogonalEdgeStyle;rounded=0;orthogonalLoop=1;jettySize=auto;html=1;" parent="1" source="zVJgpEIolp_prnYdFTZU-65" target="zVJgpEIolp_prnYdFTZU-76" edge="1">
          <mxGeometry relative="1" as="geometry" />
        </mxCell>
        <mxCell id="zVJgpEIolp_prnYdFTZU-65" value="hapus data costomer" style="rhombus;whiteSpace=wrap;html=1;" parent="1" vertex="1">
          <mxGeometry x="150" y="1430" width="80" height="80" as="geometry" />
        </mxCell>
        <mxCell id="zVJgpEIolp_prnYdFTZU-78" style="edgeStyle=orthogonalEdgeStyle;rounded=0;orthogonalLoop=1;jettySize=auto;html=1;" parent="1" source="zVJgpEIolp_prnYdFTZU-67" target="zVJgpEIolp_prnYdFTZU-79" edge="1">
          <mxGeometry relative="1" as="geometry">
            <mxPoint x="-220" y="1470" as="targetPoint" />
          </mxGeometry>
        </mxCell>
        <mxCell id="zVJgpEIolp_prnYdFTZU-67" value="input pilih&amp;nbsp;&lt;div&gt;costomer&lt;/div&gt;" style="shape=parallelogram;perimeter=parallelogramPerimeter;whiteSpace=wrap;html=1;fixedSize=1;" parent="1" vertex="1">
          <mxGeometry x="-130" y="1440" width="120" height="60" as="geometry" />
        </mxCell>
        <mxCell id="zVJgpEIolp_prnYdFTZU-69" value="yes" style="text;html=1;align=center;verticalAlign=middle;resizable=0;points=[];autosize=1;strokeColor=none;fillColor=none;" parent="1" vertex="1">
          <mxGeometry x="100" y="1038" width="40" height="30" as="geometry" />
        </mxCell>
        <mxCell id="zVJgpEIolp_prnYdFTZU-70" value="no" style="text;html=1;align=center;verticalAlign=middle;resizable=0;points=[];autosize=1;strokeColor=none;fillColor=none;" parent="1" vertex="1">
          <mxGeometry x="150" y="1108" width="40" height="30" as="geometry" />
        </mxCell>
        <mxCell id="zVJgpEIolp_prnYdFTZU-71" value="yes" style="text;html=1;align=center;verticalAlign=middle;resizable=0;points=[];autosize=1;strokeColor=none;fillColor=none;" parent="1" vertex="1">
          <mxGeometry x="110" y="1178" width="40" height="30" as="geometry" />
        </mxCell>
        <mxCell id="zVJgpEIolp_prnYdFTZU-72" value="no" style="text;html=1;align=center;verticalAlign=middle;resizable=0;points=[];autosize=1;strokeColor=none;fillColor=none;" parent="1" vertex="1">
          <mxGeometry x="150" y="1238" width="40" height="30" as="geometry" />
        </mxCell>
        <mxCell id="zVJgpEIolp_prnYdFTZU-73" value="yes" style="text;html=1;align=center;verticalAlign=middle;resizable=0;points=[];autosize=1;strokeColor=none;fillColor=none;" parent="1" vertex="1">
          <mxGeometry x="110" y="1308" width="40" height="30" as="geometry" />
        </mxCell>
        <mxCell id="zVJgpEIolp_prnYdFTZU-74" value="no" style="text;html=1;align=center;verticalAlign=middle;resizable=0;points=[];autosize=1;strokeColor=none;fillColor=none;" parent="1" vertex="1">
          <mxGeometry x="150" y="1368" width="40" height="30" as="geometry" />
        </mxCell>
        <mxCell id="zVJgpEIolp_prnYdFTZU-75" value="yes" style="text;html=1;align=center;verticalAlign=middle;resizable=0;points=[];autosize=1;strokeColor=none;fillColor=none;" parent="1" vertex="1">
          <mxGeometry x="90" y="1448" width="40" height="30" as="geometry" />
        </mxCell>
        <mxCell id="zVJgpEIolp_prnYdFTZU-76" value="logout" style="rhombus;whiteSpace=wrap;html=1;" parent="1" vertex="1">
          <mxGeometry x="150" y="1560" width="80" height="80" as="geometry" />
        </mxCell>
        <mxCell id="zVJgpEIolp_prnYdFTZU-79" value="menghaus data costomer" style="rounded=0;whiteSpace=wrap;html=1;" parent="1" vertex="1">
          <mxGeometry x="-340" y="1440" width="120" height="60" as="geometry" />
        </mxCell>
        <mxCell id="zVJgpEIolp_prnYdFTZU-80" value="mengubah data costomer" style="rounded=0;whiteSpace=wrap;html=1;" parent="1" vertex="1">
          <mxGeometry x="-330" y="1310" width="120" height="60" as="geometry" />
        </mxCell>
        <mxCell id="zVJgpEIolp_prnYdFTZU-83" value="tambah data costomer" style="rounded=0;whiteSpace=wrap;html=1;" parent="1" vertex="1">
          <mxGeometry x="-330" y="1039.9963636363634" width="120" height="60" as="geometry" />
        </mxCell>
        <mxCell id="zVJgpEIolp_prnYdFTZU-92" value="" style="endArrow=none;html=1;rounded=0;entryX=0;entryY=0.5;entryDx=0;entryDy=0;" parent="1" edge="1">
          <mxGeometry width="50" height="50" relative="1" as="geometry">
            <mxPoint x="-460" y="1610" as="sourcePoint" />
            <mxPoint x="150" y="1600" as="targetPoint" />
          </mxGeometry>
        </mxCell>
        <mxCell id="zVJgpEIolp_prnYdFTZU-93" value="no" style="text;html=1;align=center;verticalAlign=middle;resizable=0;points=[];autosize=1;strokeColor=none;fillColor=none;" parent="1" vertex="1">
          <mxGeometry x="100" y="1568" width="40" height="30" as="geometry" />
        </mxCell>
        <mxCell id="zVJgpEIolp_prnYdFTZU-117" style="edgeStyle=orthogonalEdgeStyle;rounded=0;orthogonalLoop=1;jettySize=auto;html=1;entryX=0.5;entryY=0;entryDx=0;entryDy=0;" parent="1" source="zVJgpEIolp_prnYdFTZU-112" target="zVJgpEIolp_prnYdFTZU-114" edge="1">
          <mxGeometry relative="1" as="geometry" />
        </mxCell>
        <mxCell id="zVJgpEIolp_prnYdFTZU-112" value="main user" style="shape=parallelogram;perimeter=parallelogramPerimeter;whiteSpace=wrap;html=1;fixedSize=1;" parent="1" vertex="1">
          <mxGeometry x="380" y="870" width="120" height="60" as="geometry" />
        </mxCell>
        <mxCell id="zVJgpEIolp_prnYdFTZU-113" value="" style="endArrow=classic;html=1;rounded=0;entryX=0.583;entryY=0;entryDx=0;entryDy=0;entryPerimeter=0;exitX=1;exitY=0.5;exitDx=0;exitDy=0;edgeStyle=orthogonalEdgeStyle;" parent="1" source="zVJgpEIolp_prnYdFTZU-47" target="zVJgpEIolp_prnYdFTZU-112" edge="1">
          <mxGeometry width="50" height="50" relative="1" as="geometry">
            <mxPoint x="310" y="720" as="sourcePoint" />
            <mxPoint x="360" y="670" as="targetPoint" />
          </mxGeometry>
        </mxCell>
        <mxCell id="zVJgpEIolp_prnYdFTZU-122" style="edgeStyle=orthogonalEdgeStyle;rounded=0;orthogonalLoop=1;jettySize=auto;html=1;exitX=1;exitY=0.5;exitDx=0;exitDy=0;entryX=0;entryY=0.5;entryDx=0;entryDy=0;" parent="1" source="zVJgpEIolp_prnYdFTZU-114" target="zVJgpEIolp_prnYdFTZU-121" edge="1">
          <mxGeometry relative="1" as="geometry" />
        </mxCell>
        <mxCell id="zVJgpEIolp_prnYdFTZU-124" style="edgeStyle=orthogonalEdgeStyle;rounded=0;orthogonalLoop=1;jettySize=auto;html=1;exitX=0.5;exitY=1;exitDx=0;exitDy=0;entryX=0.5;entryY=0;entryDx=0;entryDy=0;" parent="1" source="zVJgpEIolp_prnYdFTZU-114" target="zVJgpEIolp_prnYdFTZU-123" edge="1">
          <mxGeometry relative="1" as="geometry" />
        </mxCell>
        <mxCell id="zVJgpEIolp_prnYdFTZU-114" value="menu user" style="rhombus;whiteSpace=wrap;html=1;" parent="1" vertex="1">
          <mxGeometry x="400" y="988" width="80" height="80" as="geometry" />
        </mxCell>
        <mxCell id="zVJgpEIolp_prnYdFTZU-121" value="tabel data boneka&amp;nbsp;" style="shape=parallelogram;perimeter=parallelogramPerimeter;whiteSpace=wrap;html=1;fixedSize=1;" parent="1" vertex="1">
          <mxGeometry x="570" y="998" width="120" height="60" as="geometry" />
        </mxCell>
        <mxCell id="zVJgpEIolp_prnYdFTZU-123" value="kembali" style="rhombus;whiteSpace=wrap;html=1;" parent="1" vertex="1">
          <mxGeometry x="400" y="1100" width="80" height="80" as="geometry" />
        </mxCell>
        <mxCell id="zVJgpEIolp_prnYdFTZU-125" value="yes" style="text;html=1;align=center;verticalAlign=middle;resizable=0;points=[];autosize=1;strokeColor=none;fillColor=none;" parent="1" vertex="1">
          <mxGeometry x="480" y="988" width="40" height="30" as="geometry" />
        </mxCell>
        <mxCell id="zVJgpEIolp_prnYdFTZU-131" value="" style="endArrow=classic;html=1;rounded=0;entryX=0.956;entryY=0.389;entryDx=0;entryDy=0;entryPerimeter=0;" parent="1" target="zVJgpEIolp_prnYdFTZU-112" edge="1">
          <mxGeometry width="50" height="50" relative="1" as="geometry">
            <mxPoint x="720" y="890" as="sourcePoint" />
            <mxPoint x="590" y="860" as="targetPoint" />
          </mxGeometry>
        </mxCell>
        <mxCell id="zVJgpEIolp_prnYdFTZU-134" value="" style="endArrow=none;html=1;rounded=0;exitX=1;exitY=0.5;exitDx=0;exitDy=0;" parent="1" source="zVJgpEIolp_prnYdFTZU-123" edge="1">
          <mxGeometry width="50" height="50" relative="1" as="geometry">
            <mxPoint x="500" y="1170" as="sourcePoint" />
            <mxPoint x="730" y="1140" as="targetPoint" />
          </mxGeometry>
        </mxCell>
        <mxCell id="zVJgpEIolp_prnYdFTZU-136" value="" style="endArrow=none;html=1;rounded=0;" parent="1" edge="1">
          <mxGeometry width="50" height="50" relative="1" as="geometry">
            <mxPoint x="730" y="1140" as="sourcePoint" />
            <mxPoint x="720" y="890" as="targetPoint" />
          </mxGeometry>
        </mxCell>
        <mxCell id="zVJgpEIolp_prnYdFTZU-137" value="no" style="text;html=1;align=center;verticalAlign=middle;resizable=0;points=[];autosize=1;strokeColor=none;fillColor=none;" parent="1" vertex="1">
          <mxGeometry x="480" y="1118" width="40" height="30" as="geometry" />
        </mxCell>
        <mxCell id="zVJgpEIolp_prnYdFTZU-138" value="" style="endArrow=none;html=1;rounded=0;exitX=0.5;exitY=1;exitDx=0;exitDy=0;" parent="1" source="zVJgpEIolp_prnYdFTZU-123" edge="1">
          <mxGeometry width="50" height="50" relative="1" as="geometry">
            <mxPoint x="450" y="1260" as="sourcePoint" />
            <mxPoint x="440" y="1220" as="targetPoint" />
          </mxGeometry>
        </mxCell>
        <mxCell id="zVJgpEIolp_prnYdFTZU-140" value="" style="endArrow=none;html=1;rounded=0;" parent="1" edge="1">
          <mxGeometry width="50" height="50" relative="1" as="geometry">
            <mxPoint x="440" y="1220" as="sourcePoint" />
            <mxPoint x="810" y="1220" as="targetPoint" />
          </mxGeometry>
        </mxCell>
        <mxCell id="zVJgpEIolp_prnYdFTZU-141" value="" style="endArrow=none;html=1;rounded=0;" parent="1" edge="1">
          <mxGeometry width="50" height="50" relative="1" as="geometry">
            <mxPoint x="810" y="320" as="sourcePoint" />
            <mxPoint x="810" y="1220" as="targetPoint" />
          </mxGeometry>
        </mxCell>
        <mxCell id="zVJgpEIolp_prnYdFTZU-144" value="" style="endArrow=classic;html=1;rounded=0;" parent="1" target="zVJgpEIolp_prnYdFTZU-3" edge="1">
          <mxGeometry width="50" height="50" relative="1" as="geometry">
            <mxPoint x="810" y="320" as="sourcePoint" />
            <mxPoint x="530" y="320" as="targetPoint" />
          </mxGeometry>
        </mxCell>
        <mxCell id="zVJgpEIolp_prnYdFTZU-147" value="" style="endArrow=none;html=1;rounded=0;" parent="1" edge="1">
          <mxGeometry width="50" height="50" relative="1" as="geometry">
            <mxPoint x="-660" y="520" as="sourcePoint" />
            <mxPoint x="60" y="520" as="targetPoint" />
          </mxGeometry>
        </mxCell>
        <mxCell id="zVJgpEIolp_prnYdFTZU-148" value="" style="endArrow=none;html=1;rounded=0;entryX=0.5;entryY=1;entryDx=0;entryDy=0;" parent="1" target="zVJgpEIolp_prnYdFTZU-17" edge="1">
          <mxGeometry width="50" height="50" relative="1" as="geometry">
            <mxPoint x="60" y="520" as="sourcePoint" />
            <mxPoint y="460" as="targetPoint" />
          </mxGeometry>
        </mxCell>
        <mxCell id="zVJgpEIolp_prnYdFTZU-149" value="" style="endArrow=none;html=1;rounded=0;" parent="1" edge="1">
          <mxGeometry width="50" height="50" relative="1" as="geometry">
            <mxPoint x="-640" y="1700" as="sourcePoint" />
            <mxPoint x="-660" y="520" as="targetPoint" />
          </mxGeometry>
        </mxCell>
        <mxCell id="zVJgpEIolp_prnYdFTZU-151" value="" style="endArrow=none;html=1;rounded=0;" parent="1" edge="1">
          <mxGeometry width="50" height="50" relative="1" as="geometry">
            <mxPoint x="-200" y="1380" as="sourcePoint" />
            <mxPoint x="-150" y="1330" as="targetPoint" />
          </mxGeometry>
        </mxCell>
        <mxCell id="zVJgpEIolp_prnYdFTZU-152" value="" style="endArrow=none;html=1;rounded=0;" parent="1" target="zVJgpEIolp_prnYdFTZU-155" edge="1">
          <mxGeometry width="50" height="50" relative="1" as="geometry">
            <mxPoint x="-640" y="1700" as="sourcePoint" />
            <mxPoint x="290" y="1690" as="targetPoint" />
          </mxGeometry>
        </mxCell>
        <mxCell id="zVJgpEIolp_prnYdFTZU-153" value="" style="endArrow=none;html=1;rounded=0;" parent="1" edge="1">
          <mxGeometry width="50" height="50" relative="1" as="geometry">
            <mxPoint x="810" y="1600" as="sourcePoint" />
            <mxPoint x="810" y="1220" as="targetPoint" />
          </mxGeometry>
        </mxCell>
        <mxCell id="zVJgpEIolp_prnYdFTZU-154" value="" style="endArrow=none;html=1;rounded=0;exitX=1;exitY=0.5;exitDx=0;exitDy=0;" parent="1" source="zVJgpEIolp_prnYdFTZU-76" edge="1">
          <mxGeometry width="50" height="50" relative="1" as="geometry">
            <mxPoint x="550" y="1550" as="sourcePoint" />
            <mxPoint x="810" y="1600" as="targetPoint" />
          </mxGeometry>
        </mxCell>
        <mxCell id="zVJgpEIolp_prnYdFTZU-157" style="edgeStyle=orthogonalEdgeStyle;rounded=0;orthogonalLoop=1;jettySize=auto;html=1;entryX=0;entryY=0.5;entryDx=0;entryDy=0;" parent="1" source="zVJgpEIolp_prnYdFTZU-155" target="zVJgpEIolp_prnYdFTZU-156" edge="1">
          <mxGeometry relative="1" as="geometry" />
        </mxCell>
        <mxCell id="zVJgpEIolp_prnYdFTZU-155" value="program berhenti" style="shape=parallelogram;perimeter=parallelogramPerimeter;whiteSpace=wrap;html=1;fixedSize=1;" parent="1" vertex="1">
          <mxGeometry x="294" y="1670" width="120" height="60" as="geometry" />
        </mxCell>
        <mxCell id="zVJgpEIolp_prnYdFTZU-156" value="end" style="ellipse;whiteSpace=wrap;html=1;" parent="1" vertex="1">
          <mxGeometry x="480" y="1660" width="120" height="80" as="geometry" />
        </mxCell>
        <mxCell id="zVJgpEIolp_prnYdFTZU-158" value="yes" style="text;html=1;align=center;verticalAlign=middle;resizable=0;points=[];autosize=1;strokeColor=none;fillColor=none;" parent="1" vertex="1">
          <mxGeometry x="230" y="1578" width="40" height="30" as="geometry" />
        </mxCell>
        <mxCell id="zVJgpEIolp_prnYdFTZU-159" value="yes" style="text;html=1;align=center;verticalAlign=middle;resizable=0;points=[];autosize=1;strokeColor=none;fillColor=none;" parent="1" vertex="1">
          <mxGeometry x="430" y="1178" width="40" height="30" as="geometry" />
        </mxCell>
        <mxCell id="zVJgpEIolp_prnYdFTZU-169" value="usernae atau password salah&amp;nbsp;" style="shape=parallelogram;perimeter=parallelogramPerimeter;whiteSpace=wrap;html=1;fixedSize=1;" parent="1" vertex="1">
          <mxGeometry x="-50" y="640" width="120" height="60" as="geometry" />
        </mxCell>
        <mxCell id="zVJgpEIolp_prnYdFTZU-170" value="" style="endArrow=none;html=1;rounded=0;entryX=0.667;entryY=0;entryDx=0;entryDy=0;entryPerimeter=0;" parent="1" target="zVJgpEIolp_prnYdFTZU-169" edge="1">
          <mxGeometry width="50" height="50" relative="1" as="geometry">
            <mxPoint x="40" y="540" as="sourcePoint" />
            <mxPoint x="-50" y="570" as="targetPoint" />
          </mxGeometry>
        </mxCell>
        <mxCell id="zVJgpEIolp_prnYdFTZU-171" value="" style="endArrow=classic;html=1;rounded=0;" parent="1" target="zVJgpEIolp_prnYdFTZU-40" edge="1">
          <mxGeometry width="50" height="50" relative="1" as="geometry">
            <mxPoint x="40" y="540" as="sourcePoint" />
            <mxPoint x="110" y="540" as="targetPoint" />
          </mxGeometry>
        </mxCell>
        <mxCell id="zVJgpEIolp_prnYdFTZU-172" value="" style="endArrow=classic;html=1;rounded=0;entryX=0;entryY=0.5;entryDx=0;entryDy=0;" parent="1" source="zVJgpEIolp_prnYdFTZU-169" target="zVJgpEIolp_prnYdFTZU-43" edge="1">
          <mxGeometry width="50" height="50" relative="1" as="geometry">
            <mxPoint x="60" y="640" as="sourcePoint" />
            <mxPoint x="110" y="590" as="targetPoint" />
            <Array as="points">
              <mxPoint x="110" y="670" />
            </Array>
          </mxGeometry>
        </mxCell>
        <mxCell id="zVJgpEIolp_prnYdFTZU-173" value="no" style="text;html=1;align=center;verticalAlign=middle;resizable=0;points=[];autosize=1;strokeColor=none;fillColor=none;" parent="1" vertex="1">
          <mxGeometry x="90" y="648" width="40" height="30" as="geometry" />
        </mxCell>
        <mxCell id="zVJgpEIolp_prnYdFTZU-174" value="yes" style="text;html=1;align=center;verticalAlign=middle;resizable=0;points=[];autosize=1;strokeColor=none;fillColor=none;" parent="1" vertex="1">
          <mxGeometry x="130" y="688" width="40" height="30" as="geometry" />
        </mxCell>
        <mxCell id="zVJgpEIolp_prnYdFTZU-175" value="no" style="text;html=1;align=center;verticalAlign=middle;resizable=0;points=[];autosize=1;strokeColor=none;fillColor=none;" parent="1" vertex="1">
          <mxGeometry x="230" y="768" width="40" height="30" as="geometry" />
        </mxCell>
        <mxCell id="FwNXLtS4O4eo6wQvJ9RR-8" value="" style="endArrow=classic;html=1;rounded=0;entryX=1;entryY=0.75;entryDx=0;entryDy=0;" parent="1" target="zVJgpEIolp_prnYdFTZU-3" edge="1">
          <mxGeometry width="50" height="50" relative="1" as="geometry">
            <mxPoint x="610" y="330" as="sourcePoint" />
            <mxPoint x="300" y="430" as="targetPoint" />
          </mxGeometry>
        </mxCell>
        <mxCell id="FwNXLtS4O4eo6wQvJ9RR-9" value="" style="endArrow=none;html=1;rounded=0;" parent="1" edge="1">
          <mxGeometry width="50" height="50" relative="1" as="geometry">
            <mxPoint x="610" y="670" as="sourcePoint" />
            <mxPoint x="610" y="330" as="targetPoint" />
          </mxGeometry>
        </mxCell>
        <mxCell id="FwNXLtS4O4eo6wQvJ9RR-10" value="" style="endArrow=classic;html=1;rounded=0;entryX=0.992;entryY=0.641;entryDx=0;entryDy=0;entryPerimeter=0;" parent="1" target="zVJgpEIolp_prnYdFTZU-38" edge="1">
          <mxGeometry width="50" height="50" relative="1" as="geometry">
            <mxPoint x="610" y="670" as="sourcePoint" />
            <mxPoint x="300" y="430" as="targetPoint" />
          </mxGeometry>
        </mxCell>
        <mxCell id="FwNXLtS4O4eo6wQvJ9RR-11" value="" style="endArrow=classic;html=1;rounded=0;entryX=1;entryY=0.5;entryDx=0;entryDy=0;exitX=-0.031;exitY=0.626;exitDx=0;exitDy=0;exitPerimeter=0;" parent="1" source="zVJgpEIolp_prnYdFTZU-38" target="zVJgpEIolp_prnYdFTZU-43" edge="1">
          <mxGeometry width="50" height="50" relative="1" as="geometry">
            <mxPoint x="250" y="630" as="sourcePoint" />
            <mxPoint x="300" y="580" as="targetPoint" />
          </mxGeometry>
        </mxCell>
      </root>
    </mxGraphModel>
  </diagram>
</mxfile>
